<svg id="visual" viewBox="0 0 900 600" width="900" height="600" xmlns="http://www.w3.org/2000/svg" xmlns:xlink="http://www.w3.org/1999/xlink" version="1.1"><rect x="0" y="0" width="900" height="600" fill="#ffffff"></rect><path d="M0 385L10.7 384C21.3 383 42.7 381 64.2 386.8C85.7 392.7 107.3 406.3 128.8 406.7C150.3 407 171.7 394 193 390C214.3 386 235.7 391 257 403C278.3 415 299.7 434 321.2 436.7C342.7 439.3 364.3 425.7 385.8 423.3C407.3 421 428.7 430 450 426.5C471.3 423 492.7 407 514.2 404.8C535.7 402.7 557.3 414.3 578.8 424.8C600.3 435.3 621.7 444.7 643 443.2C664.3 441.7 685.7 429.3 707 429C728.3 428.7 749.7 440.3 771.2 444.2C792.7 448 814.3 444 835.8 434.3C857.3 424.7 878.7 409.3 889.3 401.7L900 394L900 601L889.3 601C878.7 601 857.3 601 835.8 601C814.3 601 792.7 601 771.2 601C749.7 601 728.3 601 707 601C685.7 601 664.3 601 643 601C621.7 601 600.3 601 578.8 601C557.3 601 535.7 601 514.2 601C492.7 601 471.3 601 450 601C428.7 601 407.3 601 385.8 601C364.3 601 342.7 601 321.2 601C299.7 601 278.3 601 257 601C235.7 601 214.3 601 193 601C171.7 601 150.3 601 128.8 601C107.3 601 85.7 601 64.2 601C42.7 601 21.3 601 10.7 601L0 601Z" fill="#ffffff"></path><path d="M0 429L10.7 431.7C21.3 434.3 42.7 439.7 64.2 436.7C85.7 433.7 107.3 422.3 128.8 414C150.3 405.7 171.7 400.3 193 401.8C214.3 403.3 235.7 411.7 257 414.8C278.3 418 299.7 416 321.2 420.5C342.7 425 364.3 436 385.8 437.5C407.3 439 428.7 431 450 422.3C471.3 413.7 492.7 404.3 514.2 404.7C535.7 405 557.3 415 578.8 425.8C600.3 436.7 621.7 448.3 643 447.2C664.3 446 685.7 432 707 431.3C728.3 430.7 749.7 443.3 771.2 448C792.7 452.7 814.3 449.3 835.8 439.7C857.3 430 878.7 414 889.3 406L900 398L900 601L889.3 601C878.7 601 857.3 601 835.8 601C814.3 601 792.7 601 771.2 601C749.7 601 728.3 601 707 601C685.7 601 664.3 601 643 601C621.7 601 600.3 601 578.8 601C557.3 601 535.7 601 514.2 601C492.7 601 471.3 601 450 601C428.7 601 407.3 601 385.8 601C364.3 601 342.7 601 321.2 601C299.7 601 278.3 601 257 601C235.7 601 214.3 601 193 601C171.7 601 150.3 601 128.8 601C107.3 601 85.7 601 64.2 601C42.7 601 21.3 601 10.7 601L0 601Z" fill="#ffede7"></path><path d="M0 450L10.7 444.7C21.3 439.3 42.7 428.7 64.2 426.5C85.7 424.3 107.3 430.7 128.8 435.5C150.3 440.3 171.7 443.7 193 444.8C214.3 446 235.7 445 257 450C278.3 455 299.7 466 321.2 465.3C342.7 464.7 364.3 452.3 385.8 443.5C407.3 434.7 428.7 429.3 450 427.3C471.3 425.3 492.7 426.7 514.2 436.5C535.7 446.3 557.3 464.7 578.8 463.7C600.3 462.7 621.7 442.3 643 438.3C664.3 434.3 685.7 446.7 707 450.2C728.3 453.7 749.7 448.3 771.2 444C792.7 439.7 814.3 436.3 835.8 437.8C857.3 439.3 878.7 445.7 889.3 448.8L900 452L900 601L889.3 601C878.7 601 857.3 601 835.8 601C814.3 601 792.7 601 771.2 601C749.7 601 728.3 601 707 601C685.7 601 664.3 601 643 601C621.7 601 600.3 601 578.8 601C557.3 601 535.7 601 514.2 601C492.7 601 471.3 601 450 601C428.7 601 407.3 601 385.8 601C364.3 601 342.7 601 321.2 601C299.7 601 278.3 601 257 601C235.7 601 214.3 601 193 601C171.7 601 150.3 601 128.8 601C107.3 601 85.7 601 64.2 601C42.7 601 21.3 601 10.7 601L0 601Z" fill="#ffdcd0"></path><path d="M0 477L10.7 472.2C21.3 467.3 42.7 457.7 64.2 456.2C85.7 454.7 107.3 461.3 128.8 463.5C150.3 465.7 171.7 463.3 193 466.3C214.3 469.3 235.7 477.7 257 472.8C278.3 468 299.7 450 321.2 442.2C342.7 434.3 364.3 436.7 385.8 436.8C407.3 437 428.7 435 450 443.3C471.3 451.7 492.7 470.3 514.2 470.2C535.7 470 557.3 451 578.8 450.2C600.3 449.3 621.7 466.7 643 468.2C664.3 469.7 685.7 455.3 707 455.7C728.3 456 749.7 471 771.2 477.3C792.7 483.7 814.3 481.3 835.8 482C857.3 482.7 878.7 486.3 889.3 488.2L900 490L900 601L889.3 601C878.7 601 857.3 601 835.8 601C814.3 601 792.7 601 771.2 601C749.7 601 728.3 601 707 601C685.7 601 664.3 601 643 601C621.7 601 600.3 601 578.8 601C557.3 601 535.7 601 514.2 601C492.7 601 471.3 601 450 601C428.7 601 407.3 601 385.8 601C364.3 601 342.7 601 321.2 601C299.7 601 278.3 601 257 601C235.7 601 214.3 601 193 601C171.7 601 150.3 601 128.8 601C107.3 601 85.7 601 64.2 601C42.7 601 21.3 601 10.7 601L0 601Z" fill="#ffcab9"></path><path d="M0 447L10.7 454.5C21.3 462 42.7 477 64.2 482.3C85.7 487.7 107.3 483.3 128.8 475.7C150.3 468 171.7 457 193 460.3C214.3 463.7 235.7 481.3 257 489.5C278.3 497.7 299.7 496.3 321.2 496.3C342.7 496.3 364.3 497.7 385.8 499.8C407.3 502 428.7 505 450 505.8C471.3 506.7 492.7 505.3 514.2 504.8C535.7 504.3 557.3 504.7 578.8 497.2C600.3 489.7 621.7 474.3 643 471C664.3 467.7 685.7 476.3 707 481.7C728.3 487 749.7 489 771.2 491.5C792.7 494 814.3 497 835.8 499C857.3 501 878.7 502 889.3 502.5L900 503L900 601L889.3 601C878.7 601 857.3 601 835.8 601C814.3 601 792.7 601 771.2 601C749.7 601 728.3 601 707 601C685.7 601 664.3 601 643 601C621.7 601 600.3 601 578.8 601C557.3 601 535.7 601 514.2 601C492.7 601 471.3 601 450 601C428.7 601 407.3 601 385.8 601C364.3 601 342.7 601 321.2 601C299.7 601 278.3 601 257 601C235.7 601 214.3 601 193 601C171.7 601 150.3 601 128.8 601C107.3 601 85.7 601 64.2 601C42.7 601 21.3 601 10.7 601L0 601Z" fill="#ffb9a2"></path><path d="M0 490L10.7 488.3C21.3 486.7 42.7 483.3 64.2 483.2C85.7 483 107.3 486 128.8 485.3C150.3 484.7 171.7 480.3 193 485.3C214.3 490.3 235.7 504.7 257 512C278.3 519.3 299.7 519.7 321.2 519.7C342.7 519.7 364.3 519.3 385.8 511.2C407.3 503 428.7 487 450 487.2C471.3 487.3 492.7 503.7 514.2 507C535.7 510.3 557.3 500.7 578.8 492.2C600.3 483.7 621.7 476.3 643 476C664.3 475.7 685.7 482.3 707 483.8C728.3 485.3 749.7 481.7 771.2 481C792.7 480.3 814.3 482.7 835.8 487.5C857.3 492.3 878.7 499.7 889.3 503.3L900 507L900 601L889.3 601C878.7 601 857.3 601 835.8 601C814.3 601 792.7 601 771.2 601C749.7 601 728.3 601 707 601C685.7 601 664.3 601 643 601C621.7 601 600.3 601 578.8 601C557.3 601 535.7 601 514.2 601C492.7 601 471.3 601 450 601C428.7 601 407.3 601 385.8 601C364.3 601 342.7 601 321.2 601C299.7 601 278.3 601 257 601C235.7 601 214.3 601 193 601C171.7 601 150.3 601 128.8 601C107.3 601 85.7 601 64.2 601C42.7 601 21.3 601 10.7 601L0 601Z" fill="#ffa78c"></path><path d="M0 501L10.7 499C21.3 497 42.7 493 64.2 497.2C85.7 501.3 107.3 513.7 128.8 517.3C150.3 521 171.7 516 193 515C214.3 514 235.7 517 257 512.8C278.3 508.7 299.7 497.3 321.2 499.3C342.7 501.3 364.3 516.7 385.8 520.3C407.3 524 428.7 516 450 513.7C471.3 511.3 492.7 514.7 514.2 510.3C535.7 506 557.3 494 578.8 491.8C600.3 489.7 621.7 497.3 643 503.2C664.3 509 685.7 513 707 513.5C728.3 514 749.7 511 771.2 509.3C792.7 507.7 814.3 507.3 835.8 503.5C857.3 499.7 878.7 492.3 889.3 488.7L900 485L900 601L889.3 601C878.7 601 857.3 601 835.8 601C814.3 601 792.7 601 771.2 601C749.7 601 728.3 601 707 601C685.7 601 664.3 601 643 601C621.7 601 600.3 601 578.8 601C557.3 601 535.7 601 514.2 601C492.7 601 471.3 601 450 601C428.7 601 407.3 601 385.8 601C364.3 601 342.7 601 321.2 601C299.7 601 278.3 601 257 601C235.7 601 214.3 601 193 601C171.7 601 150.3 601 128.8 601C107.3 601 85.7 601 64.2 601C42.7 601 21.3 601 10.7 601L0 601Z" fill="#ff9576"></path><path d="M0 506L10.7 506C21.3 506 42.7 506 64.2 507.3C85.7 508.7 107.3 511.3 128.8 516C150.3 520.7 171.7 527.3 193 531.2C214.3 535 235.7 536 257 530.5C278.3 525 299.7 513 321.2 507.2C342.7 501.3 364.3 501.7 385.8 503.5C407.3 505.3 428.7 508.7 450 509.2C471.3 509.7 492.7 507.3 514.2 505.2C535.7 503 557.3 501 578.8 507.3C600.3 513.7 621.7 528.3 643 531.5C664.3 534.7 685.7 526.3 707 526.5C728.3 526.7 749.7 535.3 771.2 535.2C792.7 535 814.3 526 835.8 520.2C857.3 514.3 878.7 511.7 889.3 510.3L900 509L900 601L889.3 601C878.7 601 857.3 601 835.8 601C814.3 601 792.7 601 771.2 601C749.7 601 728.3 601 707 601C685.7 601 664.3 601 643 601C621.7 601 600.3 601 578.8 601C557.3 601 535.7 601 514.2 601C492.7 601 471.3 601 450 601C428.7 601 407.3 601 385.8 601C364.3 601 342.7 601 321.2 601C299.7 601 278.3 601 257 601C235.7 601 214.3 601 193 601C171.7 601 150.3 601 128.8 601C107.3 601 85.7 601 64.2 601C42.7 601 21.3 601 10.7 601L0 601Z" fill="#ff8360"></path><path d="M0 534L10.7 533.2C21.3 532.3 42.7 530.7 64.2 530.7C85.7 530.7 107.3 532.3 128.8 530.5C150.3 528.7 171.7 523.3 193 523.7C214.3 524 235.7 530 257 532.8C278.3 535.7 299.7 535.3 321.2 534C342.7 532.7 364.3 530.3 385.8 531.5C407.3 532.7 428.7 537.3 450 536.3C471.3 535.3 492.7 528.7 514.2 529.5C535.7 530.3 557.3 538.7 578.8 539.7C600.3 540.7 621.7 534.3 643 531.5C664.3 528.7 685.7 529.3 707 529.3C728.3 529.3 749.7 528.7 771.2 526.3C792.7 524 814.3 520 835.8 521C857.3 522 878.7 528 889.3 531L900 534L900 601L889.3 601C878.7 601 857.3 601 835.8 601C814.3 601 792.7 601 771.2 601C749.7 601 728.3 601 707 601C685.7 601 664.3 601 643 601C621.7 601 600.3 601 578.8 601C557.3 601 535.7 601 514.2 601C492.7 601 471.3 601 450 601C428.7 601 407.3 601 385.8 601C364.3 601 342.7 601 321.2 601C299.7 601 278.3 601 257 601C235.7 601 214.3 601 193 601C171.7 601 150.3 601 128.8 601C107.3 601 85.7 601 64.2 601C42.7 601 21.3 601 10.7 601L0 601Z" fill="#ff6f4a"></path><path d="M0 552L10.7 549.3C21.3 546.7 42.7 541.3 64.2 538.3C85.7 535.3 107.3 534.7 128.8 536.5C150.3 538.3 171.7 542.7 193 544.7C214.3 546.7 235.7 546.3 257 544.5C278.3 542.7 299.7 539.3 321.2 539C342.7 538.7 364.3 541.3 385.8 544C407.3 546.7 428.7 549.3 450 551.3C471.3 553.3 492.7 554.7 514.2 553.7C535.7 552.7 557.3 549.3 578.8 551.5C600.3 553.7 621.7 561.3 643 562C664.3 562.7 685.7 556.3 707 555.5C728.3 554.7 749.7 559.3 771.2 561.8C792.7 564.3 814.3 564.7 835.8 563.7C857.3 562.7 878.7 560.3 889.3 559.2L900 558L900 601L889.3 601C878.7 601 857.3 601 835.8 601C814.3 601 792.7 601 771.2 601C749.7 601 728.3 601 707 601C685.7 601 664.3 601 643 601C621.7 601 600.3 601 578.8 601C557.3 601 535.7 601 514.2 601C492.7 601 471.3 601 450 601C428.7 601 407.3 601 385.8 601C364.3 601 342.7 601 321.2 601C299.7 601 278.3 601 257 601C235.7 601 214.3 601 193 601C171.7 601 150.3 601 128.8 601C107.3 601 85.7 601 64.2 601C42.7 601 21.3 601 10.7 601L0 601Z" fill="#ff5835"></path><path d="M0 574L10.7 572.5C21.3 571 42.7 568 64.2 566.5C85.7 565 107.3 565 128.8 562.7C150.3 560.3 171.7 555.7 193 557.8C214.3 560 235.7 569 257 570.2C278.3 571.3 299.7 564.7 321.2 560.2C342.7 555.7 364.3 553.3 385.8 555.5C407.3 557.7 428.7 564.3 450 564.8C471.3 565.3 492.7 559.7 514.2 558.5C535.7 557.3 557.3 560.7 578.8 565C600.3 569.3 621.7 574.7 643 574.7C664.3 574.7 685.7 569.3 707 566.8C728.3 564.3 749.7 564.7 771.2 563.5C792.7 562.3 814.3 559.7 835.8 559.8C857.3 560 878.7 563 889.3 564.5L900 566L900 601L889.3 601C878.7 601 857.3 601 835.8 601C814.3 601 792.7 601 771.2 601C749.7 601 728.3 601 707 601C685.7 601 664.3 601 643 601C621.7 601 600.3 601 578.8 601C557.3 601 535.7 601 514.2 601C492.7 601 471.3 601 450 601C428.7 601 407.3 601 385.8 601C364.3 601 342.7 601 321.2 601C299.7 601 278.3 601 257 601C235.7 601 214.3 601 193 601C171.7 601 150.3 601 128.8 601C107.3 601 85.7 601 64.2 601C42.7 601 21.3 601 10.7 601L0 601Z" fill="#ff3c1e"></path><path d="M0 592L10.7 591.8C21.3 591.7 42.7 591.3 64.2 588.3C85.7 585.3 107.3 579.7 128.8 579.3C150.3 579 171.7 584 193 585.5C214.3 587 235.7 585 257 583.2C278.3 581.3 299.7 579.7 321.2 578.3C342.7 577 364.3 576 385.8 574.7C407.3 573.3 428.7 571.7 450 570.5C471.3 569.3 492.7 568.7 514.2 569.5C535.7 570.3 557.3 572.7 578.8 576.5C600.3 580.3 621.7 585.7 643 587.5C664.3 589.3 685.7 587.7 707 584.7C728.3 581.7 749.7 577.3 771.2 577.7C792.7 578 814.3 583 835.8 583C857.3 583 878.7 578 889.3 575.5L900 573L900 601L889.3 601C878.7 601 857.3 601 835.8 601C814.3 601 792.7 601 771.2 601C749.7 601 728.3 601 707 601C685.7 601 664.3 601 643 601C621.7 601 600.3 601 578.8 601C557.3 601 535.7 601 514.2 601C492.7 601 471.3 601 450 601C428.7 601 407.3 601 385.8 601C364.3 601 342.7 601 321.2 601C299.7 601 278.3 601 257 601C235.7 601 214.3 601 193 601C171.7 601 150.3 601 128.8 601C107.3 601 85.7 601 64.2 601C42.7 601 21.3 601 10.7 601L0 601Z" fill="#ff0000"></path></svg>